<mxfile host="app.diagrams.net" modified="2024-04-22T01:13:22.293Z" agent="Mozilla/5.0 (Windows NT 10.0; Win64; x64) AppleWebKit/537.36 (KHTML, like Gecko) Chrome/124.0.0.0 Safari/537.36" version="24.2.3" etag="J047BRuOPpvjKWah4Z5X" type="github">
  <diagram name="PÃ¡gina-1" id="AfZRch8j22vQ6pZ5jkNI">
    <mxGraphModel>
      <root>
        <mxCell id="0" />
        <mxCell id="1" parent="0" />
      </root>
    </mxGraphModel>
  </diagram>
</mxfile>
